<svg id="Layer_1" data-name="Layer 1" xmlns="http://www.w3.org/2000/svg" viewBox="0 0 208.43 117.25"><defs><style>.cls-1{fill:#fff;}.cls-2{fill:#018837;}.cls-3{fill:#01a0c6;}.cls-4{fill:#fea621;}.cls-5{fill:#666;}.cls-6{fill:#63300f;}</style></defs><polygon class="cls-1" points="152.77 47.61 173.79 33.25 197.9 49.14 152.77 47.61"/><rect class="cls-1" x="175.73" y="57.15" width="12.38" height="25.16"/><path class="cls-2" d="M154.58,110.55c1.4-13,30.83,3.72,30.83,3.72L163,77.06l-5.61,3.72-21-37.21L118.14,67.76l-2.8-7.45L109.73,64l-7-13L76.1,86.36,64.88,80.78,31.25,121.71s39.24-16.74,60.26,0c18.67,14.87,51.69,6.27,58.86,4.15.91-.26,1.41-.43,1.41-.43h1.4l-7.29-1.32c9.54-1.9,17.1-4.26,17.1-4.26ZM146.17,118a60.79,60.79,0,0,1-9.22,4.49c-16.57-3.06-41.21-7.7-51-10.07-15.42-3.72-40.65,0-40.65,0l21-24.19-2.81,14.89,11.22-13,2.8,7.44,1.4-7.44L95.72,67.76C97.12,64,104.13,64,104.13,64l-2.81,13,11.21-11.17-1.4,7.45h4.21c0,5.58-11.21,18.6-11.21,18.6,7-3.72,23.82-33.49,23.82-33.49,2.8-3.72,5.61,0,5.61,0,1.93,7.7-4.79,14.51-9.16,18,2.86.15,6.35,2.47,6.35,2.47l-14,22.33c5.61,3.72,16.82-9.31,16.82-9.31v16.75l9.81-9.3,5.6,9.3Z" transform="translate(-31.25 -43.57)"/><polygon class="cls-2" points="120.53 81.86 131.74 76.28 110.72 79.25 120.53 81.86"/><polygon class="cls-2" points="150.03 70.7 158.9 82.98 90.68 85.75 121.9 76.07 113.81 59.47 128.84 52.56 150.03 70.7"/><rect class="cls-3" x="106.11" y="52.99" width="27.65" height="29.16"/><rect class="cls-1" x="103.18" y="48.63" width="33.02" height="6.34"/><rect x="78.46" y="82.15" width="129.97" height="5.3"/><rect class="cls-1" x="113.5" y="57.85" width="12.38" height="8.46"/><rect x="101.96" y="45.03" width="4.15" height="37.11"/><rect x="101.96" y="45.03" width="37.33" height="5.3"/><rect x="133.76" y="45.03" width="5.53" height="42.41"/><rect x="111.64" y="54.31" width="4.15" height="17.23"/><rect x="111.64" y="54.31" width="16.59" height="5.3"/><rect x="124.09" y="54.31" width="4.15" height="17.23"/><rect x="111.64" y="66.24" width="16.59" height="5.3"/><path d="M189.9,91.25V131h-5.53V93.9Z" transform="translate(-31.25 -43.57)"/><rect x="173.86" y="54.31" width="4.15" height="33.14"/><rect x="173.86" y="54.31" width="16.59" height="5.3"/><rect x="186.3" y="54.31" width="4.15" height="33.14"/><rect x="194.6" y="47.68" width="4.15" height="39.76"/><polygon points="158.65 43.71 153.12 43.71 153.12 15.87 158.65 10.57 158.65 43.71"/><path d="M236.91,92.58l-2.77,4" transform="translate(-31.25 -43.57)"/><path d="M205.11,79.32" transform="translate(-31.25 -43.57)"/><polygon points="115.79 45.03 153.12 15.87 153.12 21.18 122.7 45.03 115.79 45.03"/><polygon points="173.86 31.78 205.66 49.01 202.9 52.99 173.86 37.08 146.21 50.34 144.82 46.36 173.86 31.78"/><polygon class="cls-3" points="122.7 45.03 153.12 21.18 153.12 42.38 144.82 46.36 146.21 50.34 154.5 46.36 154.5 49.01 153.12 50.34 153.12 82.15 139.29 82.15 139.29 49.01 139.29 46.36 139.29 45.03 122.7 45.03"/><polygon class="cls-4" points="154.5 46.36 154.5 49.01 158.65 47.68 158.65 82.15 173.86 82.15 173.86 54.31 190.45 54.31 190.45 82.15 194.6 82.15 194.6 49.01 173.86 39.73 154.5 46.36"/><polygon class="cls-5" points="153.12 50.34 154.5 49.01 158.65 47.68 153.12 50.34"/><path class="cls-6" d="M226.82,148.63" transform="translate(-31.25 -43.57)"/><text x="-31.25" y="-43.57"/><rect x="82.61" y="73.71" width="5.53" height="8.43"/><rect x="71.79" y="48.91" width="27.48" height="25.1" rx="12.49"/><rect class="cls-1" x="72.88" y="50.25" width="24.76" height="22.62" rx="11.26"/><ellipse class="cls-2" cx="85.26" cy="62.51" rx="12.38" ry="10.57"/></svg>