<svg width="4000" height="3000" viewBox="0 0 4000 3000" fill="none" xmlns="http://www.w3.org/2000/svg">
<path d="M2845.84 2584.29C2576.31 2430.25 2462.81 2523.02 2644.63 2597.61C2826.45 2672.21 2800.91 2638.63 2800.91 2638.63" fill="#FBD164"/>
<mask id="mask0_1212_2" style="mask-type:luminance" maskUnits="userSpaceOnUse" x="2556" y="2500" width="290" height="147">
<path d="M2845.84 2584.29C2576.31 2430.25 2462.81 2523.02 2644.63 2597.61C2826.45 2672.21 2800.91 2638.63 2800.91 2638.63" fill="white"/>
</mask>
<g mask="url(#mask0_1212_2)">
<path d="M2633.93 2663.89C2427.49 2398.78 2886.44 2518.45 2826 2724.89C2765.57 2931.32 2920.92 2447.01 2920.92 2447.01C2920.92 2447.01 2759.58 2345.17 2738.64 2352.53C2717.7 2359.88 2385.6 2489.86 2385.6 2489.86" fill="#F9B964"/>
</g>
<path d="M2845.84 2584.29C2576.31 2430.25 2462.81 2523.02 2644.63 2597.61C2826.45 2672.21 2800.91 2638.63 2800.91 2638.63" stroke="#190000" stroke-width="11" stroke-linecap="round" stroke-linejoin="round"/>
<path d="M2781.39 2692.66C3658.72 1966.96 3260.37 1343.56 2781.39 2692.66Z" fill="#FBD164"/>
<mask id="mask1_1212_2" style="mask-type:luminance" maskUnits="userSpaceOnUse" x="2781" y="1897" width="520" height="796">
<path d="M2781.39 2692.66C3658.72 1966.96 3260.37 1343.56 2781.39 2692.66Z" fill="white"/>
</mask>
<g mask="url(#mask1_1212_2)">
<path d="M3318.31 1851.27C3142.26 2287.77 2700.97 2765.12 2700.97 2765.12C2700.97 2765.12 2735.32 2762.33 2781.47 2765.12C2827.63 2767.92 3195.62 2692.65 3195.62 2692.65L3357.32 2126.03L3384.11 1897.77" fill="#F9B964"/>
</g>
<path d="M2781.39 2692.66C3658.72 1966.96 3260.37 1343.56 2781.39 2692.66Z" stroke="#190000" stroke-width="11" stroke-linecap="round" stroke-linejoin="round"/>
<path d="M3248.34 1957.93C3131 2194.42 2903.54 2544.63 2903.54 2544.63Z" fill="#FBD164"/>
<path d="M3248.34 1957.93C3131 2194.42 2903.54 2544.63 2903.54 2544.63" stroke="#190000" stroke-width="11" stroke-linecap="round" stroke-linejoin="round"/>
<path d="M2826 2657.39C3621.64 2284.38 3441.5 1743.67 2826 2657.39Z" fill="#FBD164"/>
<mask id="mask2_1212_2" style="mask-type:luminance" maskUnits="userSpaceOnUse" x="2826" y="2155" width="532" height="503">
<path d="M2826 2657.39C3621.64 2284.38 3441.5 1743.67 2826 2657.39Z" fill="white"/>
</mask>
<g mask="url(#mask2_1212_2)">
<path d="M3423.77 2303.01C3238.28 2470.58 2919.35 2500.13 2826 2657.39C2732.66 2814.64 3253.49 2489.86 3253.49 2489.86" fill="#F9B964"/>
</g>
<path d="M2826 2657.39C3621.64 2284.38 3441.5 1743.67 2826 2657.39Z" stroke="#190000" stroke-width="11" stroke-linecap="round" stroke-linejoin="round"/>
<path d="M3307.91 2214.27C3204.53 2340.35 2920.92 2584.29 2920.92 2584.29Z" fill="#FBD164"/>
<path d="M3307.91 2214.27C3204.53 2340.35 2920.92 2584.29 2920.92 2584.29" stroke="#190000" stroke-width="11" stroke-linecap="round" stroke-linejoin="round"/>
<path d="M2805.12 2665.95C3790.35 2093.47 3851.56 2541.07 2781.47 2693.54L2805.12 2665.95Z" fill="#FBD164"/>
<mask id="mask3_1212_2" style="mask-type:luminance" maskUnits="userSpaceOnUse" x="2781" y="2382" width="784" height="312">
<path d="M2805.12 2665.95C3790.35 2093.47 3851.56 2541.07 2781.47 2693.54L2805.12 2665.95Z" fill="white"/>
</mask>
<g mask="url(#mask3_1212_2)">
<path d="M3198.73 2438.13C3705.01 2282.09 3561.4 2530.38 3127.58 2645.59C2693.76 2760.79 3752.88 2461.6 3752.88 2461.6C3752.88 2461.6 3642.18 2299.36 3633.2 2295.21C3624.23 2291.07 3357.32 2332.95 3357.32 2332.95" fill="#F9B964"/>
</g>
<path d="M2805.12 2665.95C3790.35 2093.47 3851.56 2541.07 2781.47 2693.54L2805.12 2665.95Z" stroke="#190000" stroke-width="11" stroke-linecap="round" stroke-linejoin="round"/>
<path d="M3509.42 2438.13C3350.84 2514.37 2941.46 2649.41 2941.46 2649.41Z" fill="#FBD164"/>
<path d="M3509.42 2438.13C3350.84 2514.37 2941.46 2649.41 2941.46 2649.41" stroke="#190000" stroke-width="11" stroke-linecap="round" stroke-linejoin="round"/>
<path d="M2890.57 1625.16C3204.08 1545.89 3396.97 1239.32 3321.4 940.425C3245.82 641.525 2930.4 463.48 2616.89 542.751C2303.37 622.022 2110.49 928.589 2186.06 1227.49C2261.64 1526.39 2577.06 1704.43 2890.57 1625.16Z" fill="#E5713E"/>
<mask id="mask4_1212_2" style="mask-type:luminance" maskUnits="userSpaceOnUse" x="2169" y="523" width="1169" height="1122">
<path d="M2890.57 1625.16C3204.08 1545.89 3396.97 1239.32 3321.4 940.425C3245.82 641.525 2930.4 463.48 2616.89 542.751C2303.37 622.021 2110.49 928.589 2186.06 1227.49C2261.64 1526.39 2577.06 1704.43 2890.57 1625.16Z" fill="white"/>
</mask>
<g mask="url(#mask4_1212_2)">
<path d="M2824.54 1564.8C3138.05 1485.53 3330.94 1178.97 3255.37 880.067C3179.79 581.167 2864.37 403.122 2550.86 482.393C2237.34 561.664 2044.46 868.231 2120.03 1167.13C2195.61 1466.03 2511.03 1644.08 2824.54 1564.8Z" fill="#FACCC4"/>
</g>
<path d="M2890.57 1625.16C3204.08 1545.89 3396.97 1239.32 3321.4 940.425C3245.82 641.525 2930.4 463.48 2616.89 542.751C2303.37 622.022 2110.49 928.589 2186.06 1227.49C2261.64 1526.39 2577.06 1704.43 2890.57 1625.16Z" stroke="#190000" stroke-width="11" stroke-linecap="round" stroke-linejoin="round"/>
<path d="M2958.19 2709.39L2829.84 1178.33H2750.8L2647.7 2707.17C2647.7 2707.17 2873.3 2741.59 2958.19 2709.39Z" fill="#B06759"/>
<mask id="mask5_1212_2" style="mask-type:luminance" maskUnits="userSpaceOnUse" x="2647" y="1178" width="312" height="1546">
<path d="M2958.19 2709.39L2829.84 1178.33H2750.8L2647.7 2707.17C2647.7 2707.17 2873.3 2741.59 2958.19 2709.39Z" fill="white"/>
</mask>
<g mask="url(#mask5_1212_2)">
<path d="M2724.11 1523.9C2691.94 1832.33 2656.29 2140.36 2617.17 2448C2606.08 2535.16 2594.71 2622.28 2583.06 2709.37C2581.94 2717.79 2591.04 2724.88 2598.66 2724.96C2608.01 2725.06 2613.14 2717.68 2614.25 2709.37C2655.35 2402.01 2692.97 2094.21 2727.13 1785.97C2736.8 1698.65 2746.19 1611.29 2755.29 1523.9C2757.37 1503.96 2726.17 1504.11 2724.11 1523.9Z" fill="#914D44"/>
<path d="M2969.31 1706.89L3329.24 1478.39C3346.14 1467.66 3330.51 1440.66 3313.5 1451.46L2953.57 1679.96C2936.67 1690.69 2952.3 1717.69 2969.31 1706.89Z" fill="#B06759" stroke="#190000" stroke-width="11" stroke-linecap="round" stroke-linejoin="round"/>
<path d="M3020.44 1617.89C2947.36 1678.32 2875.39 1741 2820.59 1819.13C2809.04 1835.6 2836.07 1851.2 2847.52 1834.88C2900.64 1759.14 2971.69 1698.49 3042.5 1639.94C3048.99 1634.57 3048.06 1623.44 3042.5 1617.89C3036.07 1611.46 3026.96 1612.5 3020.44 1617.89Z" fill="#914D44"/>
<path d="M2540.07 2783.72C2855.22 2886.08 2724.12 2150.26 2802.95 2436.24C2881.78 2722.23 2892.93 1854.42 2917.18 1897.52C2941.42 1940.62 3226.94 2845.68 3226.94 2845.68L2737.83 2821.43L2585.86 2813.35" fill="#914D44"/>
</g>
<path d="M2958.19 2709.39L2829.84 1178.33H2750.8L2647.7 2707.17C2647.7 2707.17 2873.3 2741.59 2958.19 2709.39Z" stroke="#190000" stroke-width="11" stroke-linecap="round" stroke-linejoin="round"/>
<path d="M2715.68 2018.44L2460.77 1829.38C2452.5 1823.25 2445.53 1815.53 2440.28 1806.68C2435.02 1797.83 2431.57 1788.03 2430.14 1777.83L2390.75 1497.39H2434.66L2487.4 1726.37C2489.71 1736.36 2493.97 1745.8 2499.94 1754.14C2505.91 1762.48 2513.48 1769.55 2522.2 1774.95L2739.09 1909.14" fill="#B06759"/>
<mask id="mask6_1212_2" style="mask-type:luminance" maskUnits="userSpaceOnUse" x="2390" y="1497" width="350" height="522">
<path d="M2715.68 2018.44L2460.77 1829.38C2452.5 1823.25 2445.53 1815.53 2440.28 1806.68C2435.02 1797.83 2431.57 1788.03 2430.14 1777.83L2390.75 1497.39H2434.66L2487.4 1726.37C2489.71 1736.36 2493.97 1745.8 2499.94 1754.14C2505.91 1762.48 2513.48 1769.55 2522.2 1774.95L2739.09 1909.14" fill="white"/>
</mask>
<g mask="url(#mask6_1212_2)">
<path d="M2420.14 1830.88C2516.16 1909.49 2604.97 1996.51 2685.53 2090.89C2698.58 2106.18 2720.56 2084.03 2707.59 2068.84C2627.03 1974.45 2538.21 1887.44 2442.19 1808.83C2426.78 1796.21 2404.59 1818.16 2420.14 1830.88Z" fill="#8E1E07"/>
<path d="M2366.58 1763.12C2444.73 1856.6 2502.87 1970.74 2610.99 2034.59C2628.31 2044.82 2644.02 2017.87 2626.73 2007.66C2521.65 1945.6 2464.65 1831.99 2388.63 1741.06C2375.74 1725.65 2353.78 1747.81 2366.58 1763.12Z" fill="#8E1E07"/>
<path d="M2388.78 1773.4C2486.44 1854.52 2585.5 1933.9 2685.97 2011.55C2692.68 2016.74 2701.46 2017.97 2708.02 2011.55C2713.45 2006.24 2714.68 1994.64 2708.02 1989.5C2607.57 1911.86 2508.51 1832.48 2410.84 1751.35C2395.5 1738.61 2373.32 1760.56 2388.78 1773.4Z" fill="#914D44"/>
</g>
<path d="M2715.68 2018.44L2460.77 1829.38C2452.5 1823.25 2445.53 1815.53 2440.28 1806.68C2435.02 1797.83 2431.57 1788.03 2430.14 1777.83L2390.75 1497.39H2434.66L2487.4 1726.37C2489.71 1736.36 2493.97 1745.8 2499.94 1754.14C2505.91 1762.48 2513.48 1769.55 2522.2 1774.95L2739.09 1909.14" stroke="#190000" stroke-width="11" stroke-linecap="round" stroke-linejoin="round"/>
<path d="M2835.96 1718.83L3040.83 1525.44C3053.99 1513.01 3062.87 1496.73 3066.17 1478.93L3113.78 1222.24H3140.12L3121.51 1373.05L3105.46 1503.12C3103.25 1520.96 3095.48 1537.65 3083.23 1550.82L2818.59 1831.46" fill="#B06759"/>
<path d="M2835.96 1718.83L3040.83 1525.44C3053.99 1513.01 3062.87 1496.73 3066.17 1478.93L3113.78 1222.24H3140.12L3121.51 1373.05L3105.46 1503.12C3103.25 1520.96 3095.48 1537.65 3083.23 1550.82L2818.59 1831.46" stroke="#190000" stroke-width="11" stroke-linecap="round" stroke-linejoin="round"/>
<path d="M3242.57 1319.24L3121.51 1373.05L3109.58 1412.76L3240.28 1332.9L3242.57 1319.24Z" fill="#B06759" stroke="#190000" stroke-width="11" stroke-linecap="round" stroke-linejoin="round"/>
<path d="M2739.09 1702.3L2649.99 1627.22L2621.67 1450.46H2641.8L2674.56 1615.06L2753.73 1661.46" fill="#B06759"/>
<path d="M2739.09 1702.3L2649.99 1627.22L2621.67 1450.46H2641.8L2674.56 1615.06L2753.73 1661.46" stroke="#190000" stroke-width="11" stroke-linecap="round" stroke-linejoin="round"/>
<path d="M3331.54 1646.21C3536.98 1594.27 3671.81 1426.7 3632.68 1271.94C3593.55 1117.18 3395.28 1033.83 3189.84 1085.78C2984.39 1137.72 2849.57 1305.29 2888.7 1460.05C2927.83 1614.81 3126.1 1698.16 3331.54 1646.21Z" fill="#E5713E"/>
<mask id="mask7_1212_2" style="mask-type:luminance" maskUnits="userSpaceOnUse" x="2881" y="1070" width="759" height="592">
<path d="M3331.54 1646.21C3536.98 1594.27 3671.81 1426.7 3632.68 1271.94C3593.55 1117.18 3395.28 1033.83 3189.84 1085.78C2984.39 1137.72 2849.57 1305.29 2888.7 1460.05C2927.83 1614.81 3126.1 1698.16 3331.54 1646.21Z" fill="white"/>
</mask>
<g mask="url(#mask7_1212_2)">
<path d="M3210.97 1556.68C3416.42 1504.73 3551.24 1337.17 3512.11 1182.41C3472.98 1027.65 3274.71 944.298 3069.27 996.244C2863.83 1048.19 2729 1215.76 2768.13 1370.52C2807.26 1525.28 3005.53 1608.62 3210.97 1556.68Z" fill="#FACCC4"/>
</g>
<path d="M3331.54 1646.21C3536.98 1594.27 3671.81 1426.7 3632.68 1271.94C3593.55 1117.18 3395.28 1033.83 3189.84 1085.78C2984.39 1137.72 2849.57 1305.29 2888.7 1460.05C2927.83 1614.81 3126.1 1698.16 3331.54 1646.21Z" stroke="#190000" stroke-width="11" stroke-linecap="round" stroke-linejoin="round"/>
<path d="M2214.63 1149.42C2227.23 1003.83 2440.31 856.497 2690.56 820.346C2940.81 784.195 3133.47 872.911 3120.88 1018.5C3119.12 1037.26 3114.46 1055.63 3107.08 1072.96" fill="#FACCC4"/>
<path d="M3107.08 1072.96C3054.43 1199.18 2863.92 1315.94 2644.95 1347.57C2394.7 1383.72 2202.04 1295.01 2214.63 1149.42" fill="#FACCC4"/>
<path d="M3107.08 1072.96C3054.43 1199.18 2863.92 1315.94 2644.95 1347.57C2394.7 1383.72 2202.04 1295.01 2214.63 1149.42" stroke="#190000" stroke-width="11" stroke-linecap="round" stroke-linejoin="round"/>
<path d="M2389.42 1827.44C2601.45 1773.83 2737.41 1588.32 2693.11 1413.09C2648.8 1237.86 2441 1139.26 2228.97 1192.87C2016.95 1246.48 1880.99 1431.99 1925.29 1607.23C1969.6 1782.46 2177.4 1881.05 2389.42 1827.44Z" fill="#E5713E"/>
<mask id="mask8_1212_2" style="mask-type:luminance" maskUnits="userSpaceOnUse" x="1916" y="1178" width="786" height="665">
<path d="M2389.42 1827.44C2601.45 1773.83 2737.41 1588.32 2693.11 1413.09C2648.8 1237.85 2441 1139.26 2228.97 1192.87C2016.95 1246.48 1880.99 1431.99 1925.29 1607.23C1969.6 1782.46 2177.4 1881.05 2389.42 1827.44Z" fill="white"/>
</mask>
<g mask="url(#mask8_1212_2)">
<path d="M2272.25 1787.04C2484.28 1733.43 2620.24 1547.92 2575.93 1372.68C2531.63 1197.45 2323.83 1098.86 2111.8 1152.47C1899.78 1206.08 1763.81 1391.59 1808.12 1566.82C1852.43 1742.05 2060.23 1840.65 2272.25 1787.04Z" fill="#FACCC4"/>
</g>
<path d="M2389.42 1827.44C2601.45 1773.83 2737.41 1588.32 2693.11 1413.09C2648.8 1237.86 2441 1139.26 2228.97 1192.87C2016.95 1246.48 1880.99 1431.99 1925.29 1607.23C1969.6 1782.46 2177.4 1881.05 2389.42 1827.44Z" stroke="#190000" stroke-width="11" stroke-linecap="round" stroke-linejoin="round"/>
<path d="M2631.38 910.848C2693.87 855.351 2714.77 776.859 2678.07 735.531C2641.36 694.203 2560.95 705.689 2498.46 761.186C2435.98 816.683 2415.07 895.175 2451.78 936.503C2488.48 977.832 2568.9 966.345 2631.38 910.848Z" fill="#E5713E"/>
<path d="M2413.03 1494.41C2404.19 1519.82 2390 1543.03 2371.41 1562.47" stroke="#E5713D" stroke-width="11" stroke-linecap="round" stroke-linejoin="round"/>
<path d="M2965.74 778.973C2952.84 804.006 2936.5 827.113 2917.2 847.624" stroke="#E5713D" stroke-width="11" stroke-linecap="round" stroke-linejoin="round"/>
<path d="M3333.05 1392.7L3308.86 1412.97" stroke="#E5713D" stroke-width="11" stroke-linecap="round" stroke-linejoin="round"/>
<path d="M2796 2172.9C2804.54 2188.02 2815.45 2201.66 2828.32 2213.31" stroke="#6D3417" stroke-width="11" stroke-linecap="round" stroke-linejoin="round"/>
<path d="M3345.5 2435.53L3317.22 2463.82" stroke="#D89D35" stroke-width="11" stroke-linecap="round" stroke-linejoin="round"/>
<path d="M3104.98 2112.24L3090.86 2140.53" stroke="#D89D35" stroke-width="11" stroke-linecap="round" stroke-linejoin="round"/>
<path d="M521.427 591.688L612.396 725.213L723.49 704.562L567.994 583.032L521.427 591.688Z" fill="#D6DCF2" stroke="#190000" stroke-width="11" stroke-linecap="round" stroke-linejoin="round"/>
<path d="M1449.19 637.006C1395.19 603.687 1330.72 591.664 1268.33 603.28L612.396 725.213C619.901 765.585 622.147 778.029 656.539 799.32L1492.46 651.589C1475.23 635.792 1473.86 652.238 1449.19 637.006Z" fill="white"/>
<mask id="mask9_1212_2" style="mask-type:luminance" maskUnits="userSpaceOnUse" x="612" y="598" width="881" height="202">
<path d="M1449.19 637.006C1395.19 603.687 1330.72 591.664 1268.33 603.28L612.396 725.213C619.901 765.585 622.147 778.029 656.539 799.32L1492.46 651.589C1475.23 635.792 1473.86 652.238 1449.19 637.006Z" fill="white"/>
</mask>
<g mask="url(#mask9_1212_2)">
<path d="M1038.58 627.97L1060.92 648.341C1076.65 662.689 1095.46 673.243 1115.9 679.196C1136.35 685.149 1157.88 686.341 1178.86 682.682L1533.38 620.833L1401.42 505.724L1081.63 625.989L1038.58 627.97Z" fill="#D6DCF2" stroke="#190000" stroke-width="11" stroke-linecap="round" stroke-linejoin="round"/>
<path d="M742.507 686.066C748.811 684.831 756.165 684.981 764.208 686.191C820.509 694.661 910.578 755.034 910.578 755.034L1105.79 719.925L854.464 670.69" fill="#E1E6F4"/>
</g>
<path d="M1449.19 637.006C1395.19 603.687 1330.72 591.664 1268.33 603.28L612.396 725.213C619.901 765.585 622.147 778.029 656.539 799.32L1492.46 651.589C1475.23 635.792 1473.86 652.238 1449.19 637.006Z" stroke="#190000" stroke-width="11" stroke-linecap="round" stroke-linejoin="round"/>
<path d="M734.195 596.842L782.812 587.805C800.283 584.557 818.329 586.764 834.502 594.126L1105.79 719.925L910.578 755.034L729.496 616.501C727.797 615.201 726.512 613.437 725.795 611.421C725.079 609.406 724.962 607.226 725.459 605.145C725.956 603.065 727.046 601.173 728.597 599.699C730.148 598.226 732.092 597.233 734.195 596.842Z" fill="#D6DCF2" stroke="#190000" stroke-width="11" stroke-linecap="round" stroke-linejoin="round"/>
<path d="M1280.39 625.831L1269.37 633.747" stroke="white" stroke-width="11" stroke-linecap="round" stroke-linejoin="round"/>
<path d="M742.507 755.309L709.377 769.508" stroke="#D6DCF2" stroke-width="11" stroke-linecap="round" stroke-linejoin="round"/>
<path d="M1978.32 643.556L1882.18 386.468L1884.73 385.542L1980.86 642.63L1978.32 643.556Z" fill="#FFCCCC" stroke="#190000" stroke-width="11" stroke-linecap="round" stroke-linejoin="round"/>
<path d="M2073.47 643.556L2070.92 642.63L2167.06 385.542L2169.61 386.468L2073.47 643.556Z" fill="#FFCCCC" stroke="#190000" stroke-width="11" stroke-linecap="round" stroke-linejoin="round"/>
<path d="M1996.19 643.388L1937.27 386.301L1939.92 385.71L1998.84 642.798L1996.19 643.388Z" fill="#FFCCCC" stroke="#190000" stroke-width="11" stroke-linecap="round" stroke-linejoin="round"/>
<path d="M2055.59 643.388L2052.95 642.798L2111.87 385.71L2114.51 386.301L2055.59 643.388Z" fill="#FFCCCC" stroke="#190000" stroke-width="11" stroke-linecap="round" stroke-linejoin="round"/>
<path d="M2115.15 163.061C2097.68 163.135 2080.43 166.978 2064.59 174.328C2048.74 181.678 2034.67 192.362 2023.33 205.65C2011.99 192.362 1997.92 181.678 1982.07 174.328C1966.23 166.978 1948.98 163.135 1931.51 163.061C1868.2 163.061 1819.3 211.78 1819.3 274.866C1819.3 352.046 1888.63 413.946 1993.66 509.519L2023.33 535.877L2053 509.519C2158.03 413.945 2227.35 352.046 2227.35 274.866C2227.35 211.78 2178.46 163.061 2115.15 163.061Z" fill="#FFCCCC"/>
<mask id="mask10_1212_2" style="mask-type:luminance" maskUnits="userSpaceOnUse" x="1819" y="163" width="409" height="373">
<path d="M2115.15 163.061C2097.68 163.135 2080.43 166.978 2064.59 174.328C2048.74 181.678 2034.67 192.362 2023.33 205.65C2011.99 192.362 1997.92 181.678 1982.07 174.328C1966.23 166.978 1948.98 163.135 1931.51 163.061C1868.2 163.061 1819.3 211.78 1819.3 274.866C1819.3 352.046 1888.63 413.946 1993.66 509.519L2023.33 535.877L2053 509.519C2158.03 413.945 2227.35 352.046 2227.35 274.866C2227.35 211.78 2178.46 163.061 2115.15 163.061Z" fill="white"/>
</mask>
<g mask="url(#mask10_1212_2)">
<path d="M2009.07 154.122L2023.33 211.149V556.157C2023.33 556.157 1763.86 336.606 1775.27 245.364C1786.67 154.122 1937.79 122.758 1937.79 122.758" fill="#FF999A"/>
</g>
<path d="M2115.15 163.061C2097.68 163.135 2080.43 166.978 2064.59 174.328C2048.74 181.678 2034.67 192.362 2023.33 205.65C2011.99 192.362 1997.92 181.678 1982.07 174.328C1966.23 166.978 1948.98 163.135 1931.51 163.061C1868.2 163.061 1819.3 211.78 1819.3 274.866C1819.3 352.046 1888.63 413.946 1993.66 509.519L2023.33 535.877L2053 509.519C2158.03 413.945 2227.35 352.046 2227.35 274.866C2227.35 211.78 2178.46 163.061 2115.15 163.061Z" stroke="#190000" stroke-width="11" stroke-linecap="round" stroke-linejoin="round"/>
<path d="M2077.9 163.061C2056.96 163.154 2037.07 178.677 2023.33 205.65C2009.59 178.677 1989.69 163.154 1968.76 163.061C1931.13 163.061 1902.07 211.78 1902.07 274.866C1902.07 352.046 1943.27 413.946 2005.7 509.519L2023.33 535.877L2040.97 509.519C2103.39 413.945 2144.59 352.046 2144.59 274.866C2144.59 211.78 2115.53 163.061 2077.9 163.061Z" fill="#FF999A"/>
<mask id="mask11_1212_2" style="mask-type:luminance" maskUnits="userSpaceOnUse" x="1902" y="163" width="243" height="373">
<path d="M2077.9 163.061C2056.96 163.154 2037.07 178.677 2023.33 205.65C2009.59 178.677 1989.69 163.154 1968.76 163.061C1931.13 163.061 1902.07 211.78 1902.07 274.866C1902.07 352.046 1943.27 413.946 2005.7 509.519L2023.33 535.877L2040.97 509.519C2103.39 413.945 2144.59 352.046 2144.59 274.866C2144.59 211.78 2115.53 163.061 2077.9 163.061Z" fill="white"/>
</mask>
<g mask="url(#mask11_1212_2)">
<path d="M2023.33 123.727H1819.3V658.834H2023.33V123.727Z" fill="#FFCCCC"/>
</g>
<path d="M2077.9 163.061C2056.96 163.154 2037.07 178.677 2023.33 205.65C2009.59 178.677 1989.69 163.154 1968.76 163.061C1931.13 163.061 1902.07 211.78 1902.07 274.866C1902.07 352.046 1943.27 413.946 2005.7 509.519L2023.33 535.877L2040.97 509.519C2103.39 413.945 2144.59 352.046 2144.59 274.866C2144.59 211.78 2115.53 163.061 2077.9 163.061Z" stroke="#190000" stroke-width="11" stroke-linecap="round" stroke-linejoin="round"/>
<path d="M2070.74 715.445H1975.92C1975.01 715.445 1974.15 715.086 1973.51 714.447C1972.87 713.808 1972.51 712.942 1972.51 712.038V636.31H2074.15V712.039C2074.15 712.942 2073.79 713.809 2073.15 714.447C2072.51 715.086 2071.64 715.445 2070.74 715.445Z" fill="#399FE8"/>
<mask id="mask12_1212_2" style="mask-type:luminance" maskUnits="userSpaceOnUse" x="1972" y="636" width="103" height="80">
<path d="M2070.74 715.445H1975.92C1975.01 715.445 1974.15 715.086 1973.51 714.447C1972.87 713.808 1972.51 712.942 1972.51 712.038V636.31H2074.15V712.039C2074.15 712.942 2073.79 713.809 2073.15 714.447C2072.51 715.086 2071.64 715.445 2070.74 715.445Z" fill="white"/>
</mask>
<g mask="url(#mask12_1212_2)">
<path d="M1959.88 646.441C2136.93 652.328 2048.08 717.088 2028.28 725.116C2008.48 733.144 2142.28 698.891 2142.28 698.891L2120.27 613.793C2120.27 613.793 2015.97 614.863 2008.48 614.863" fill="#3B8BE2"/>
</g>
<path d="M2070.74 715.445H1975.92C1975.01 715.445 1974.15 715.086 1973.51 714.447C1972.87 713.808 1972.51 712.942 1972.51 712.038V636.31H2074.15V712.039C2074.15 712.942 2073.79 713.809 2073.15 714.447C2072.51 715.086 2071.64 715.445 2070.74 715.445Z" stroke="#190000" stroke-width="11" stroke-linecap="round" stroke-linejoin="round"/>
<path d="M1960.7 618.221H2085.96C2086.18 618.221 2086.39 618.308 2086.54 618.462C2086.69 618.616 2086.78 618.825 2086.78 619.042V642.246C2086.78 642.47 2086.69 642.686 2086.53 642.845C2086.37 643.003 2086.16 643.093 2085.93 643.093H1960.73C1960.5 643.093 1960.29 643.003 1960.13 642.845C1959.97 642.686 1959.88 642.47 1959.88 642.246V619.042C1959.88 618.934 1959.9 618.828 1959.94 618.728C1959.98 618.628 1960.04 618.538 1960.12 618.462C1960.2 618.386 1960.29 618.325 1960.39 618.284C1960.48 618.243 1960.59 618.221 1960.7 618.221Z" fill="#399FE8" stroke="#190000" stroke-width="11" stroke-linecap="round" stroke-linejoin="round"/>
<path d="M1971.46 230.503L1968.03 244.901" stroke="#FF999A" stroke-width="11" stroke-linecap="round" stroke-linejoin="round"/>
<path d="M2049.44 670.012L2017.52 691.176" stroke="#2976DF" stroke-width="11" stroke-linecap="round" stroke-linejoin="round"/>
<path d="M1630.66 1106.43C1674.52 1145.27 1742.52 1239.28 1769.92 1243.53C1797.32 1247.79 1929.2 1142.05 1937.14 1121.75C1945.08 1101.45 1961.65 986.857 1992.82 1032.18C2027.01 1081.91 1993.25 1127.82 1966.22 1152.5C1966.22 1152.5 1813.95 1329.28 1769.92 1338.64C1725.89 1348.01 1593.39 1209.25 1593.39 1209.25L1630.66 1106.43Z" fill="#FACCC4"/>
<mask id="mask13_1212_2" style="mask-type:luminance" maskUnits="userSpaceOnUse" x="1593" y="1021" width="415" height="319">
<path d="M1630.66 1106.43C1674.52 1145.27 1742.52 1239.28 1769.92 1243.53C1797.32 1247.79 1929.2 1142.05 1937.14 1121.75C1945.08 1101.45 1961.65 986.857 1992.82 1032.18C2027.01 1081.91 1993.25 1127.82 1966.22 1152.5C1966.22 1152.5 1813.95 1329.28 1769.92 1338.64C1725.89 1348.01 1593.39 1209.25 1593.39 1209.25L1630.66 1106.43Z" fill="white"/>
</mask>
<g mask="url(#mask13_1212_2)">
<path d="M1665.73 1302.8C1652.28 1249.5 1707.2 1208.93 1705.75 1187.16C1704.3 1165.39 1617.06 1201.81 1617.06 1201.81L1619.18 1278.02" fill="#ED707B"/>
</g>
<path d="M1630.66 1106.43C1674.52 1145.27 1742.52 1239.28 1769.92 1243.53C1797.32 1247.79 1929.2 1142.05 1937.14 1121.75C1945.08 1101.45 1961.65 986.857 1992.82 1032.18C2027.01 1081.91 1993.25 1127.82 1966.22 1152.5C1966.22 1152.5 1813.95 1329.28 1769.92 1338.64C1725.89 1348.01 1593.39 1209.25 1593.39 1209.25L1630.66 1106.43Z" stroke="#190000" stroke-width="11" stroke-linecap="round" stroke-linejoin="round"/>
<path d="M1632.51 1267.11C1632.51 1267.11 1691.4 1218.67 1711.34 1176.88C1711.34 1176.88 1636.31 1052.45 1622.06 1058.15C1607.81 1063.84 1539.29 1192.74 1632.51 1267.11Z" fill="#9879C9"/>
<mask id="mask14_1212_2" style="mask-type:luminance" maskUnits="userSpaceOnUse" x="1584" y="1057" width="128" height="211">
<path d="M1632.51 1267.11C1632.51 1267.11 1691.4 1218.67 1711.34 1176.88C1711.34 1176.88 1636.31 1052.45 1622.06 1058.15C1607.81 1063.84 1539.29 1192.74 1632.51 1267.11Z" fill="white"/>
</mask>
<g mask="url(#mask14_1212_2)">
<path d="M1704.49 1124.3C1711.34 1176.88 1581.57 1267.11 1581.57 1267.11L1615.86 1312.09L1761.52 1224.87" fill="white"/>
<path d="M1704.49 1124.3C1711.34 1176.88 1581.57 1267.11 1581.57 1267.11L1615.86 1312.09L1761.52 1224.87" stroke="#190000" stroke-width="11" stroke-linecap="round" stroke-linejoin="round"/>
</g>
<path d="M1632.51 1267.11C1632.51 1267.11 1691.4 1218.67 1711.34 1176.88C1711.34 1176.88 1636.31 1052.45 1622.06 1058.15C1607.81 1063.84 1539.29 1192.74 1632.51 1267.11Z" stroke="#190000" stroke-width="11" stroke-linecap="round" stroke-linejoin="round"/>
<path d="M1763.77 2479.84L1826.97 2622.24L1909.76 2615.55L1837.84 2450.21L1763.77 2479.84Z" fill="#FACCC4"/>
<mask id="mask15_1212_2" style="mask-type:luminance" maskUnits="userSpaceOnUse" x="1763" y="2450" width="147" height="173">
<path d="M1763.77 2479.84L1826.97 2622.24L1909.76 2615.55L1837.84 2450.21L1763.77 2479.84Z" fill="white"/>
</mask>
<g mask="url(#mask15_1212_2)">
<path d="M1804.11 2594.07C1795.58 2540.01 1867.68 2546.95 1878.21 2514.14C1888.74 2481.33 1784.87 2517.91 1784.87 2517.91C1784.87 2517.91 1773.97 2521.6 1772.28 2526.76C1770.58 2531.92 1799.73 2569.68 1799.73 2569.68" fill="#ED707B"/>
</g>
<path d="M1763.77 2479.84L1826.97 2622.24L1909.76 2615.55L1837.84 2450.21L1763.77 2479.84Z" stroke="#190000" stroke-width="11" stroke-linecap="round" stroke-linejoin="round"/>
<path d="M1819.39 2679.06L1799.73 2569.68C1799.73 2569.68 1874.9 2624.15 1906.49 2583.05C1906.49 2583.05 1984.32 2618.52 2038.85 2631.02C2063.36 2636.63 2080.26 2657.93 2078.66 2681.85L2078.62 2682.43L1819.39 2679.06Z" fill="#652908" stroke="#190000" stroke-width="11" stroke-linecap="round" stroke-linejoin="round"/>
<path d="M995.133 2361.83L879.578 2476.18L924.168 2537.75L1059 2406.13L995.133 2361.83Z" fill="#FACCC4"/>
<mask id="mask16_1212_2" style="mask-type:luminance" maskUnits="userSpaceOnUse" x="879" y="2361" width="181" height="177">
<path d="M995.133 2361.83L879.578 2476.18L924.168 2537.75L1059 2406.13L995.133 2361.83Z" fill="white"/>
</mask>
<g mask="url(#mask16_1212_2)">
<path d="M917.764 2421.7C952.782 2403.74 993.892 2452.84 1010.08 2453.88C1026.27 2454.93 973.616 2388.15 973.616 2388.15L939.187 2386.13L790.759 2149.24" fill="#ED707B"/>
</g>
<path d="M995.133 2361.83L879.578 2476.18L924.168 2537.75L1059 2406.13L995.133 2361.83Z" stroke="#190000" stroke-width="11" stroke-linecap="round" stroke-linejoin="round"/>
<path d="M838.016 2497.63L920.446 2430.92C920.446 2430.92 899.527 2514.47 955.627 2520.36C955.627 2520.36 955.212 2592.3 966.24 2640.7C971.89 2665.5 958.144 2690.53 933.43 2700.09L833.137 2522.17C830.886 2518.17 830.141 2513.5 831.036 2509C831.931 2504.5 834.406 2500.46 838.016 2497.63Z" fill="#652908" stroke="#190000" stroke-width="11" stroke-linecap="round" stroke-linejoin="round"/>
<path d="M1295.02 873.531C1317.39 855.318 1340.2 837.808 1363.46 821.001C1333.35 840.873 1310.11 858.654 1295.02 873.531Z" fill="#D3575E" stroke="#190000" stroke-width="11" stroke-linecap="round" stroke-linejoin="round"/>
<path d="M1310.97 861.294L1311.01 861.279C1311.04 861.249 1311.07 861.218 1311.1 861.188C1311.06 861.224 1311.02 861.259 1310.97 861.294Z" fill="#D3575E" stroke="#190000" stroke-width="11" stroke-linecap="round" stroke-linejoin="round"/>
<path d="M1862.3 712.468C1858.61 707.279 1844.19 706.678 1821.88 709.915C1769.96 717.446 1675.03 745.883 1571.16 786.585C1486.74 819.663 1414.66 853.691 1370.39 880.081C1358.08 888.129 1345.99 896.512 1334.11 905.229C1334.08 905.256 1334.04 905.284 1334.01 905.311C1325.24 913.153 1321.69 919.311 1324.46 923.21C1336.74 940.472 1467.09 907.288 1615.61 849.094C1764.13 790.899 1874.58 729.729 1862.3 712.468Z" fill="#D3575E" stroke="#190000" stroke-width="11" stroke-linecap="round" stroke-linejoin="round"/>
<path d="M1646.34 837.325C1646.34 837.325 1587.7 955.603 1627 1034.53L1522.82 1113.93L1498.16 982.847C1498.16 982.847 1550.08 854.557 1542.14 803.68C1534.19 752.803 1646.34 837.325 1646.34 837.325Z" fill="#FACCC4"/>
<mask id="mask17_1212_2" style="mask-type:luminance" maskUnits="userSpaceOnUse" x="1498" y="787" width="149" height="327">
<path d="M1646.34 837.325C1646.34 837.325 1587.7 955.603 1627 1034.53L1522.82 1113.93L1498.16 982.847C1498.16 982.847 1550.08 854.557 1542.14 803.68C1534.19 752.803 1646.34 837.325 1646.34 837.325Z" fill="white"/>
</mask>
<g mask="url(#mask17_1212_2)">
<path d="M1756.41 880.081C1756.41 921.483 1693.39 1000.95 1641.15 1000.95C1588.91 1000.95 1593.39 932.181 1593.39 890.779C1593.39 849.378 1609.58 805.118 1661.82 805.118C1714.07 805.118 1756.41 838.68 1756.41 880.081Z" fill="#ED707B"/>
</g>
<path d="M1646.34 837.325C1646.34 837.325 1587.7 955.603 1627 1034.53L1522.82 1113.93L1498.16 982.847C1498.16 982.847 1550.08 854.557 1542.14 803.68C1534.19 752.803 1646.34 837.325 1646.34 837.325Z" stroke="#190000" stroke-width="11" stroke-linecap="round" stroke-linejoin="round"/>
<path d="M1564.5 882.793C1543.87 861.999 1529.24 834.382 1519.63 809.321C1501.01 760.768 1539.75 749.597 1580.37 736.062C1697.56 697.012 1721.09 914.949 1639.18 915.555C1622.33 915.744 1605.73 911.492 1591.04 903.226" fill="#FACCC4"/>
<path d="M1564.5 882.793C1543.87 861.999 1529.24 834.382 1519.63 809.321C1501.01 760.768 1539.75 749.597 1580.37 736.062C1697.56 697.012 1721.09 914.949 1639.18 915.555C1622.33 915.744 1605.73 911.492 1591.04 903.226" stroke="#190000" stroke-width="11" stroke-linecap="round" stroke-linejoin="round"/>
<path d="M1570.64 809.597C1635.68 812.779 1691.9 752.808 1665.73 742.093C1644.93 733.576 1556.26 681.227 1513.78 757.266C1471.29 833.304 1519.25 858.204 1479.44 878.567C1435.55 901.019 1538.07 982.039 1580.58 852.216C1593.95 811.406 1570.64 809.597 1570.64 809.597Z" fill="#652908" stroke="#190000" stroke-width="11" stroke-linecap="round" stroke-linejoin="round"/>
<path d="M1779.26 2540.51C1799.73 2569.68 1883.27 2520.47 1883.27 2520.47C1883.27 2520.47 1787.22 2011.71 1763.77 1922.54C1754.67 1887.97 1586.15 1473.67 1586.15 1473.67L1333.81 1557.22C1333.81 1557.22 1517.07 1953.48 1586.15 2025.51C1586.15 2025.51 1758.79 2511.35 1779.26 2540.51Z" fill="#FB81B2"/>
<mask id="mask18_1212_2" style="mask-type:luminance" maskUnits="userSpaceOnUse" x="1333" y="1473" width="551" height="1077">
<path d="M1779.26 2540.51C1799.73 2569.68 1883.27 2520.47 1883.27 2520.47C1883.27 2520.47 1787.22 2011.71 1763.77 1922.54C1754.67 1887.97 1586.15 1473.67 1586.15 1473.67L1333.81 1557.22C1333.81 1557.22 1517.07 1953.48 1586.15 2025.51C1586.15 2025.51 1758.79 2511.35 1779.26 2540.51Z" fill="white"/>
</mask>
<g mask="url(#mask18_1212_2)">
<path opacity="0.3" d="M1403.32 1689.05C1403.32 1689.05 1635.24 1998.81 1647.89 2011.22C1660.53 2023.62 1799.73 2569.68 1799.73 2569.68" stroke="#BA393C" stroke-width="11" stroke-linecap="round" stroke-linejoin="round"/>
<path d="M1774.82 1995.91C1805.76 1995.91 1830.85 1957.31 1830.85 1909.7C1830.85 1862.08 1805.76 1823.49 1774.82 1823.49C1743.87 1823.49 1718.78 1862.08 1718.78 1909.7C1718.78 1957.31 1743.87 1995.91 1774.82 1995.91Z" fill="#EA70A2"/>
<path d="M1553.47 1545.23C1626.97 1725.33 1532.26 1973.22 1593.39 2150.72C1654.51 2328.22 1250.55 1944.37 1250.55 1944.37" fill="#EA70A2"/>
</g>
<path d="M1779.26 2540.51C1799.73 2569.68 1883.27 2520.47 1883.27 2520.47C1883.27 2520.47 1787.22 2011.71 1763.77 1922.54C1754.67 1887.97 1586.15 1473.67 1586.15 1473.67L1333.81 1557.22C1333.81 1557.22 1517.07 1953.48 1586.15 2025.51C1586.15 2025.51 1758.79 2511.35 1779.26 2540.51Z" stroke="#190000" stroke-width="11" stroke-linecap="round" stroke-linejoin="round"/>
<path d="M1586.15 1473.67C1586.15 1473.67 1434.92 1431.99 1376 1394.06C1376 1394.06 1270.03 1473.67 1328.74 1946.25C1328.74 1946.25 1092.35 2140.8 953.905 2377.18C953.905 2377.18 974.265 2449.66 1023.08 2457.75C1023.08 2457.75 1471.41 2060.34 1509.56 1991.6C1533.78 1947.95 1554.4 1768.22 1568.59 1631.84" fill="#FB81B2"/>
<mask id="mask19_1212_2" style="mask-type:luminance" maskUnits="userSpaceOnUse" x="953" y="1394" width="634" height="1064">
<path d="M1586.15 1473.67C1586.15 1473.67 1434.92 1431.99 1376 1394.06C1376 1394.06 1270.03 1473.67 1328.74 1946.25C1328.74 1946.25 1092.35 2140.8 953.905 2377.18C953.905 2377.18 974.265 2449.66 1023.08 2457.75C1023.08 2457.75 1471.41 2060.34 1509.56 1991.6C1533.78 1947.95 1554.4 1768.22 1568.59 1631.84" fill="white"/>
</mask>
<g mask="url(#mask19_1212_2)">
<path d="M1323.05 1905.61C1188.39 1458.59 1521.58 1567.78 1586.15 1473.67C1650.72 1379.55 1206.97 1371.25 1206.97 1371.25L1158 1470.31L1093.73 1583.29" fill="#EA70A2"/>
<path opacity="0.3" d="M879.578 2476.18C879.578 2476.18 1372.86 1971.6 1400.4 1968.54C1427.94 1965.47 1360.62 1462.27 1421.82 1394.06" stroke="#BA393C" stroke-width="11" stroke-linecap="round" stroke-linejoin="round"/>
<path opacity="0.3" d="M1395.84 1627.41C1502.92 1644.14 1458.55 1538.56 1458.55 1538.56" stroke="#BA393C" stroke-width="11" stroke-linecap="round" stroke-linejoin="round"/>
</g>
<path d="M1586.15 1473.67C1586.15 1473.67 1434.92 1431.99 1376 1394.06C1376 1394.06 1270.03 1473.67 1328.74 1946.25C1328.74 1946.25 1092.35 2140.8 953.905 2377.18C953.905 2377.18 974.265 2449.66 1023.08 2457.75C1023.08 2457.75 1471.41 2060.34 1509.56 1991.6C1533.78 1947.95 1554.4 1768.22 1568.59 1631.84" stroke="#190000" stroke-width="11" stroke-linecap="round" stroke-linejoin="round"/>
<path d="M1292.81 1417.28C1292.81 1417.28 1517.26 1529.69 1647.71 1465.63C1647.71 1465.63 1572.25 1297.55 1645.97 1234.41C1721.34 1169.86 1643.61 1050.12 1627 1034.53C1627 1034.53 1586.15 1048.39 1538.83 983.605C1496.02 924.993 1289.59 1340.06 1292.81 1417.28Z" fill="#9879C9"/>
<mask id="mask20_1212_2" style="mask-type:luminance" maskUnits="userSpaceOnUse" x="1292" y="977" width="387" height="509">
<path d="M1292.81 1417.28C1292.81 1417.28 1517.26 1529.69 1647.71 1465.63C1647.71 1465.63 1572.25 1297.55 1645.97 1234.41C1721.34 1169.86 1643.61 1050.12 1627 1034.53C1627 1034.53 1586.15 1048.39 1538.83 983.605C1496.02 924.993 1289.59 1340.06 1292.81 1417.28Z" fill="white"/>
</mask>
<g mask="url(#mask20_1212_2)">
<path d="M1526.73 1162.53C1526.73 1162.53 1491.95 1253.14 1598.98 1247.19C1598.98 1247.19 1452.23 1229.95 1461.63 1473.25H1333.81C1333.81 1473.25 1374.22 1443.12 1376 1394.06C1377.79 1345.01 1452.23 1229.95 1452.23 1229.95L1526.73 1162.53Z" fill="#6F4EB9"/>
<path d="M1575.77 1089.92V1217.38L1780.68 1144.64L1575.77 1089.92Z" fill="#409159"/>
<mask id="mask21_1212_2" style="mask-type:luminance" maskUnits="userSpaceOnUse" x="1575" y="1089" width="206" height="129">
<path d="M1575.77 1089.92V1217.38L1780.68 1144.64L1575.77 1089.92Z" fill="white"/>
</mask>
<g mask="url(#mask21_1212_2)">
<path d="M1604.84 1044.79H1548.77V1255.46H1604.84V1044.79Z" fill="#9879C9" stroke="#190000" stroke-width="11" stroke-linecap="round" stroke-linejoin="round"/>
</g>
<path d="M1575.77 1089.92V1217.38L1780.68 1144.64L1575.77 1089.92Z" stroke="#190000" stroke-width="11" stroke-linecap="round" stroke-linejoin="round"/>
</g>
<path d="M1292.81 1417.28C1292.81 1417.28 1517.26 1529.69 1647.71 1465.63C1647.71 1465.63 1572.25 1297.55 1645.97 1234.41C1721.34 1169.86 1643.61 1050.12 1627 1034.53C1627 1034.53 1586.15 1048.39 1538.83 983.605C1496.02 924.993 1289.59 1340.06 1292.81 1417.28Z" stroke="#190000" stroke-width="11" stroke-linecap="round" stroke-linejoin="round"/>
<path d="M1418.89 1652.19C1416.6 1679.1 1336.06 1803.5 1324.48 1754.15C1312.91 1704.8 1375.1 1648 1375.1 1648C1375.1 1648 1323.89 1282.16 1350.66 1236.97C1377.42 1191.79 1437.14 944.029 1538.83 983.604C1640.53 1023.18 1453.45 1290.16 1453.45 1290.16L1418.89 1652.19Z" fill="#FACCC4"/>
<mask id="mask22_1212_2" style="mask-type:luminance" maskUnits="userSpaceOnUse" x="1323" y="979" width="247" height="787">
<path d="M1418.89 1652.19C1416.6 1679.1 1336.06 1803.5 1324.48 1754.15C1312.91 1704.8 1375.1 1648 1375.1 1648C1375.1 1648 1323.89 1282.16 1350.66 1236.97C1377.42 1191.79 1437.14 944.029 1538.83 983.604C1640.53 1023.18 1453.45 1290.16 1453.45 1290.16L1418.89 1652.19Z" fill="white"/>
</mask>
<g mask="url(#mask22_1212_2)">
<path d="M1314.08 1250.78C1409.01 1154.25 1490.55 1202.16 1521.78 1185.21C1553.01 1168.25 1343.66 1122.24 1343.66 1122.24L1323.05 1145.71" fill="#ED707B"/>
</g>
<path d="M1418.89 1652.19C1416.6 1679.1 1336.06 1803.5 1324.48 1754.15C1312.91 1704.8 1375.1 1648 1375.1 1648C1375.1 1648 1323.89 1282.16 1350.66 1236.97C1377.42 1191.79 1437.14 944.029 1538.83 983.604C1640.53 1023.18 1453.45 1290.16 1453.45 1290.16L1418.89 1652.19Z" stroke="#190000" stroke-width="11" stroke-linecap="round" stroke-linejoin="round"/>
<path d="M1365.77 1135.7C1365.77 1135.7 1506.09 1201.91 1546.84 1181.33C1546.84 1181.33 1648.18 980.408 1544.04 963.33C1439.9 946.253 1365.77 1135.7 1365.77 1135.7Z" fill="#9879C9"/>
<mask id="mask23_1212_2" style="mask-type:luminance" maskUnits="userSpaceOnUse" x="1365" y="962" width="227" height="224">
<path d="M1365.77 1135.7C1365.77 1135.7 1506.09 1201.91 1546.84 1181.33C1546.84 1181.33 1648.18 980.408 1544.04 963.33C1439.9 946.253 1365.77 1135.7 1365.77 1135.7Z" fill="white"/>
</mask>
<g mask="url(#mask23_1212_2)">
<path d="M1352.97 1073.77C1375.92 1112.7 1525.58 1172.12 1555.57 1162.53C1585.55 1152.95 1548.77 1197.32 1548.77 1197.32L1356.03 1203.45" fill="white"/>
<path d="M1352.97 1073.77C1375.92 1112.7 1525.58 1172.12 1555.57 1162.53C1585.55 1152.95 1548.77 1197.32 1548.77 1197.32L1356.03 1203.45" stroke="#190000" stroke-width="11" stroke-linecap="round" stroke-linejoin="round"/>
</g>
<path d="M1365.77 1135.7C1365.77 1135.7 1506.09 1201.91 1546.84 1181.33C1546.84 1181.33 1648.18 980.408 1544.04 963.33C1439.9 946.253 1365.77 1135.7 1365.77 1135.7Z" stroke="#190000" stroke-width="11" stroke-linecap="round" stroke-linejoin="round"/>
<path d="M1501.42 757.266C1518 757.266 1531.44 746.219 1531.44 732.593C1531.44 718.967 1518 707.92 1501.42 707.92C1484.84 707.92 1471.4 718.967 1471.4 732.593C1471.4 746.219 1484.84 757.266 1501.42 757.266Z" fill="#D3575E" stroke="#190000" stroke-width="11" stroke-linecap="round" stroke-linejoin="round"/>
<path d="M1489.19 819.794C1484.83 808.024 1483.65 794.649 1486.35 780.443C1495.44 732.673 1544.95 693.588 1596.94 693.144C1634.57 692.823 1668.73 715.619 1678.22 744.806" fill="#D3575E"/>
<mask id="mask24_1212_2" style="mask-type:luminance" maskUnits="userSpaceOnUse" x="1484" y="693" width="195" height="127">
<path d="M1489.19 819.794C1484.83 808.024 1483.65 794.649 1486.35 780.443C1495.44 732.673 1544.95 693.588 1596.94 693.144C1634.57 692.823 1668.73 715.619 1678.22 744.806" fill="white"/>
</mask>
<g mask="url(#mask24_1212_2)">
<path d="M1409.58 830.082C1566.68 712.769 1711.34 751.533 1711.34 751.533L1464.67 850.18" fill="#BA424D"/>
</g>
<path d="M1489.19 819.794C1484.83 808.024 1483.65 794.649 1486.35 780.443C1495.44 732.673 1544.95 693.588 1596.94 693.144C1634.57 692.823 1668.73 715.619 1678.22 744.806" stroke="#190000" stroke-width="11" stroke-linecap="round" stroke-linejoin="round"/>
<path d="M1821.88 709.915C1821.81 709.92 1821.76 709.921 1821.69 709.925C1785.07 712.598 1555.8 758.845 1370.39 880.081C1414.66 853.691 1486.74 819.663 1571.16 786.585C1675.03 745.883 1769.96 717.446 1821.88 709.915Z" fill="#D3575E" stroke="#190000" stroke-width="11" stroke-linecap="round" stroke-linejoin="round"/>
<path d="M2012.46 925.437L1992.44 918.752C1991.88 918.564 1991.27 918.867 1991.09 919.427L1921.88 1126.62C1921.7 1127.18 1922 1127.79 1922.56 1127.98L1942.57 1134.66C1943.13 1134.85 1943.74 1134.55 1943.93 1133.99L2013.13 926.79C2013.32 926.23 2013.02 925.624 2012.46 925.437Z" fill="#4B4D5C" stroke="#190000" stroke-width="11" stroke-linecap="round" stroke-linejoin="round"/>
<path d="M981.898 2325.83L953.905 2377.18C953.905 2377.18 968.634 2452.72 1023.08 2457.75L1056 2428.41C1056 2428.41 983.428 2398.52 981.898 2325.83Z" fill="#9879C9" stroke="#190000" stroke-width="11" stroke-linecap="round" stroke-linejoin="round"/>
<path d="M1749.81 2489.68L1778.17 2540.82C1778.17 2540.82 1853.42 2562.43 1886.84 2519.15L1879.7 2475.64C1879.7 2475.64 1812 2527.33 1749.81 2489.68Z" fill="#9879C9" stroke="#190000" stroke-width="11" stroke-linecap="round" stroke-linejoin="round"/>
<path d="M1664.95 810.243C1664.34 806.405 1660.74 803.785 1656.9 804.39C1653.07 804.995 1650.45 808.597 1651.05 812.435L1652.9 824.17C1653.51 828.008 1657.11 830.629 1660.95 830.023C1664.78 829.418 1667.41 825.816 1666.8 821.979L1664.95 810.243Z" fill="#190000"/>
<path d="M1662.8 783.549C1641.66 785.928 1638.36 795.366 1651.67 794.74C1664.98 794.115 1676.61 781.995 1662.8 783.549Z" fill="#190000"/>
<path d="M1677.77 814.924C1705.93 827.281 1700.72 855.704 1681.97 852.104Z" fill="#FACCC4"/>
<path d="M1677.77 814.924C1705.93 827.281 1700.72 855.704 1681.97 852.104" stroke="#190000" stroke-width="11" stroke-linecap="round" stroke-linejoin="round"/>
<path d="M1651.86 840.51C1651.94 833.987 1644.84 828.607 1635.99 828.494C1627.15 828.382 1619.91 833.579 1619.83 840.102C1619.74 846.626 1626.85 852.005 1635.69 852.118C1644.54 852.23 1651.78 847.033 1651.86 840.51Z" fill="#ED707B"/>
<path d="M1648.79 856.765C1651.42 860.35 1655.07 863.048 1659.27 864.498" stroke="#993443" stroke-width="11" stroke-linecap="round" stroke-linejoin="round"/>
<path d="M1590.65 830.337C1546.53 804.834 1533.27 862.216 1588.1 872.927Z" fill="#FACCC4"/>
<path d="M1590.65 830.337C1546.53 804.834 1533.27 862.216 1588.1 872.927" stroke="#190000" stroke-width="11" stroke-linecap="round" stroke-linejoin="round"/>
<path d="M1583.78 841.332C1583.28 840.466 1582.58 839.725 1581.75 839.16C1580.93 838.596 1579.98 838.222 1578.99 838.067C1578 837.913 1576.99 837.98 1576.03 838.265C1575.06 838.549 1574.18 839.044 1573.43 839.714C1572.68 840.383 1572.1 841.21 1571.71 842.135C1571.32 843.059 1571.14 844.059 1571.19 845.061C1571.23 846.062 1571.5 847.041 1571.97 847.927C1572.44 848.812 1573.11 849.582 1573.91 850.18" stroke="#190000" stroke-width="11" stroke-linecap="round" stroke-linejoin="round"/>
<path d="M1553.47 1241.14C1558.86 1245.75 1565.43 1248.76 1572.45 1249.84C1579.46 1250.91 1586.64 1250.01 1593.16 1247.22" stroke="#6F4EB9" stroke-width="11" stroke-linecap="round" stroke-linejoin="round"/>
<path d="M1541.18 1419.71L1579.94 1417.67" stroke="#6F4EB9" stroke-width="11" stroke-linecap="round" stroke-linejoin="round"/>
<path d="M1449.43 1291.09L1435.26 1280.73" stroke="#E84B23" stroke-width="11" stroke-linecap="round" stroke-linejoin="round"/>
<path d="M1765.52 1242.23C1765.93 1243.97 1765.97 1245.78 1765.65 1247.54C1765.33 1249.31 1764.65 1250.98 1763.65 1252.47" stroke="#E84B23" stroke-width="11" stroke-linecap="round" stroke-linejoin="round"/>
<path d="M1329.07 1948.05C1332.5 1950.93 1336.82 1952.52 1341.29 1952.56C1345.77 1952.61 1350.12 1951.09 1353.6 1948.28" stroke="#BA393C" stroke-width="11" stroke-linecap="round" stroke-linejoin="round"/>
<path d="M1586.41 2034.88L1626.92 2021.75" stroke="#BA393C" stroke-width="11" stroke-linecap="round" stroke-linejoin="round"/>
<path d="M983.813 2521.6C973.311 2526.05 963.564 2532.1 954.918 2539.54L987.356 2544.76" stroke="#190000" stroke-width="11" stroke-linecap="round" stroke-linejoin="round"/>
<path d="M1931.9 2568.32L1929.93 2592.41C1947.77 2582.06 1967.57 2575.53 1988.07 2573.24" stroke="#190000" stroke-width="11" stroke-linecap="round" stroke-linejoin="round"/>
<path d="M1350.27 1737.54L1086.89 1979.51L1065.2 1956L1328.59 1713.95C1330.73 1711.99 1333.35 1710.64 1336.19 1710.06C1339.03 1709.47 1341.98 1709.66 1344.71 1710.62C1347.45 1711.58 1349.88 1713.26 1351.73 1715.48C1353.59 1717.71 1354.81 1720.4 1355.26 1723.26C1355.66 1725.87 1355.42 1728.54 1354.55 1731.03C1353.68 1733.52 1352.21 1735.75 1350.27 1737.54Z" fill="#D3575E"/>
<mask id="mask25_1212_2" style="mask-type:luminance" maskUnits="userSpaceOnUse" x="1065" y="1709" width="291" height="271">
<path d="M1350.27 1737.54L1086.89 1979.51L1065.2 1956L1328.59 1713.95C1330.73 1711.99 1333.35 1710.64 1336.19 1710.06C1339.03 1709.47 1341.98 1709.66 1344.71 1710.62C1347.45 1711.58 1349.88 1713.26 1351.73 1715.48C1353.59 1717.71 1354.81 1720.4 1355.26 1723.26C1355.66 1725.87 1355.42 1728.54 1354.55 1731.03C1353.68 1733.52 1352.21 1735.75 1350.27 1737.54Z" fill="white"/>
</mask>
<g mask="url(#mask25_1212_2)">
<path d="M1172.81 1811.69C1133.03 1882.08 1165.16 1921.61 1165.16 1921.61C1165.16 1921.61 1149.09 1971.6 1146.8 1972.36C1144.5 1973.13 1084.19 1963.42 1084.19 1963.42L1110.08 1825.46" fill="#BA424D"/>
</g>
<path d="M1350.27 1737.54L1086.89 1979.51L1065.2 1956L1328.59 1713.95C1330.73 1711.99 1333.35 1710.64 1336.19 1710.06C1339.03 1709.47 1341.98 1709.66 1344.71 1710.62C1347.45 1711.58 1349.88 1713.26 1351.73 1715.48C1353.59 1717.71 1354.81 1720.4 1355.26 1723.26C1355.66 1725.87 1355.42 1728.54 1354.55 1731.03C1353.68 1733.52 1352.21 1735.75 1350.27 1737.54Z" stroke="#190000" stroke-width="11" stroke-linecap="round" stroke-linejoin="round"/>
<path d="M443.609 2644.98C469.241 2644.98 490.021 2624.21 490.021 2598.57C490.021 2572.94 469.241 2552.16 443.609 2552.16C417.977 2552.16 397.198 2572.94 397.198 2598.57C397.198 2624.21 417.977 2644.98 443.609 2644.98Z" fill="#4B4D5C" stroke="#190000" stroke-width="11" stroke-linecap="round" stroke-linejoin="round"/>
<path d="M508.648 2538L441.632 2540.33C441.632 2540.33 459.138 2563.33 444.198 2582.38C440.777 2582.26 437.404 2583.22 434.564 2585.13C431.723 2587.04 429.561 2589.81 428.388 2593.02C427.215 2596.24 427.091 2599.74 428.033 2603.03C428.976 2606.33 430.937 2609.23 433.635 2611.34C436.333 2613.45 439.629 2614.65 443.05 2614.77C446.472 2614.88 449.843 2613.92 452.68 2612C455.516 2610.08 457.673 2607.32 458.84 2604.1C460.008 2600.88 460.125 2597.37 459.177 2594.08L508.648 2538Z" fill="#D3575E" stroke="#190000" stroke-width="11" stroke-linecap="round" stroke-linejoin="round"/>
<path d="M444.636 2549.63C453.783 2559.54 466.493 2565.42 479.97 2565.96C493.447 2566.5 506.587 2561.67 516.5 2552.52L1115.44 1999.89C1120.35 1995.36 1124.32 1989.91 1127.12 1983.84C1129.92 1977.78 1131.5 1971.23 1131.77 1964.55C1132.04 1957.88 1130.99 1951.22 1128.69 1944.95C1126.38 1938.68 1122.86 1932.93 1118.33 1928.02L1053.74 1858.01L380.039 2479.62L444.636 2549.63Z" fill="#B06759"/>
<mask id="mask26_1212_2" style="mask-type:luminance" maskUnits="userSpaceOnUse" x="380" y="1858" width="752" height="709">
<path d="M444.636 2549.63C453.783 2559.54 466.493 2565.42 479.97 2565.96C493.447 2566.5 506.587 2561.67 516.5 2552.52L1115.44 1999.89C1120.35 1995.36 1124.32 1989.91 1127.12 1983.84C1129.92 1977.78 1131.5 1971.23 1131.77 1964.55C1132.04 1957.88 1130.99 1951.22 1128.69 1944.95C1126.38 1938.68 1122.86 1932.93 1118.33 1928.02L1053.74 1858.01L380.039 2479.62L444.636 2549.63Z" fill="white"/>
</mask>
<g mask="url(#mask26_1212_2)">
<path d="M305.316 2398.64C630.316 2660.43 1066.39 1953.47 1118.33 1928.02C1170.28 1902.58 1103.65 2163.33 1103.65 2163.33L736.408 2412.45L560.948 2714.5L291.836 2684.68L271.234 2369.33" fill="#914D44"/>
</g>
<path d="M444.636 2549.63C453.783 2559.54 466.493 2565.42 479.97 2565.96C493.447 2566.5 506.587 2561.67 516.5 2552.52L1115.44 1999.89C1120.35 1995.36 1124.32 1989.91 1127.12 1983.84C1129.92 1977.78 1131.5 1971.23 1131.77 1964.55C1132.04 1957.88 1130.99 1951.22 1128.69 1944.95C1126.38 1938.68 1122.86 1932.93 1118.33 1928.02L1053.74 1858.01L380.039 2479.62L444.636 2549.63Z" stroke="#190000" stroke-width="11" stroke-linecap="round" stroke-linejoin="round"/>
<path d="M979.014 1777.03C969.867 1767.11 957.157 1761.24 943.68 1760.7C930.203 1760.16 917.063 1764.99 907.15 1774.14L308.206 2326.77C298.293 2335.92 292.42 2348.63 291.878 2362.11C291.336 2375.58 296.17 2388.72 305.316 2398.64L369.914 2468.65L1043.61 1847.04L979.014 1777.03Z" fill="#B06759" stroke="#190000" stroke-width="11" stroke-linecap="round" stroke-linejoin="round"/>
<path d="M1043.61 1847.04L369.913 2468.65L380.039 2479.62L1053.74 1858.01L1043.61 1847.04Z" fill="#FBD164" stroke="#190000" stroke-width="11" stroke-linecap="round" stroke-linejoin="round"/>
<path d="M812.2 1907.33C808.33 1918.12 802.05 1927.89 793.838 1935.89" stroke="#6D3417" stroke-width="11" stroke-linecap="round" stroke-linejoin="round"/>
<path d="M591.786 2339.8L557.107 2378.56" stroke="#6D3417" stroke-width="11" stroke-linecap="round" stroke-linejoin="round"/>
</svg>
